<svg width="14" height="14" viewBox="0 0 14 14" fill="none" xmlns="http://www.w3.org/2000/svg">
<path d="M12.7251 2.26045C12.6457 2.17792 12.5513 2.11242 12.4472 2.06772C12.3432 2.02301 12.2316 2 12.1189 2C12.0062 2 11.8946 2.02301 11.7905 2.06772C11.6865 2.11242 11.592 2.17792 11.5126 2.26045L5.15139 8.82889L2.47882 6.06416C2.3964 5.98206 2.29911 5.91751 2.1925 5.87419C2.08589 5.83086 1.97205 5.80962 1.85748 5.81166C1.74291 5.81371 1.62985 5.839 1.52476 5.8861C1.41967 5.9332 1.3246 6.00118 1.24499 6.08617C1.16538 6.17116 1.10278 6.27148 1.06077 6.38141C1.01875 6.49135 0.998148 6.60874 1.00013 6.72688C1.00211 6.84503 1.02664 6.96161 1.07232 7.06998C1.11799 7.17835 1.18392 7.27638 1.26634 7.35848L4.54515 10.7396C4.62453 10.8221 4.71897 10.8876 4.82302 10.9323C4.92707 10.977 5.03867 11 5.15139 11C5.26411 11 5.37572 10.977 5.47977 10.9323C5.58382 10.8876 5.67826 10.8221 5.75763 10.7396L12.7251 3.55477C12.8118 3.47231 12.881 3.37225 12.9283 3.26086C12.9756 3.14948 13 3.0292 13 2.90761C13 2.78601 12.9756 2.66573 12.9283 2.55435C12.881 2.44297 12.8118 2.3429 12.7251 2.26045Z" fill="white"/>
</svg>
