<svg width="12" height="12" viewBox="0 0 12 12" fill="none" xmlns="http://www.w3.org/2000/svg">
<g clip-path="url(#clip0_218_987)">
<path d="M4.59405 0.515086C4.488 0.354727 4.41797 0.248789 4.41797 0H3.71484C3.71484 0.460195 3.87712 0.705656 4.00751 0.902883C4.11356 1.06324 4.18359 1.16918 4.18359 1.41797C4.18359 1.66676 4.11354 1.7727 4.00751 1.93305C3.87712 2.13028 3.71484 2.37574 3.71484 2.83594H4.41797C4.41797 2.58715 4.488 2.48121 4.59405 2.32085C4.72444 2.12363 4.88672 1.87816 4.88672 1.41797C4.88672 0.957773 4.72444 0.712312 4.59405 0.515086Z" fill="white"/>
<path d="M3.1878 0.515086C3.08175 0.354727 3.01172 0.248789 3.01172 0H2.30859C2.30859 0.460195 2.47087 0.705656 2.60126 0.902883C2.70731 1.06324 2.77734 1.16918 2.77734 1.41797C2.77734 1.66676 2.70729 1.7727 2.60126 1.93305C2.47087 2.13028 2.30859 2.37574 2.30859 2.83594H3.01172C3.01172 2.58715 3.08175 2.48121 3.1878 2.32085C3.31819 2.12363 3.48047 1.87816 3.48047 1.41797C3.48047 0.957773 3.31819 0.712312 3.1878 0.515086Z" fill="white"/>
<path d="M6.0003 0.515086C5.89425 0.354727 5.82422 0.248789 5.82422 0H5.12109C5.12109 0.460195 5.28337 0.705656 5.41376 0.902883C5.51981 1.06324 5.58984 1.16918 5.58984 1.41797C5.58984 1.66676 5.51979 1.7727 5.41376 1.93305C5.28337 2.13028 5.12109 2.37574 5.12109 2.83594H5.82422C5.82422 2.58715 5.89425 2.48121 6.0003 2.32085C6.13069 2.12363 6.29297 1.87816 6.29297 1.41797C6.29297 0.957773 6.13069 0.712312 6.0003 0.515086Z" fill="white"/>
<path d="M7.40655 0.515086C7.3005 0.354727 7.23047 0.248789 7.23047 0H6.52734C6.52734 0.460195 6.68962 0.705656 6.82001 0.902883C6.92606 1.06324 6.99609 1.16918 6.99609 1.41797C6.99609 1.66676 6.92604 1.7727 6.82001 1.93305C6.68962 2.13028 6.52734 2.37574 6.52734 2.83594H7.23047C7.23047 2.58715 7.3005 2.48121 7.40655 2.32085C7.53694 2.12363 7.69922 1.87816 7.69922 1.41797C7.69922 0.957773 7.53694 0.712312 7.40655 0.515086Z" fill="white"/>
<path d="M8.8128 0.515086C8.70675 0.354727 8.63672 0.248789 8.63672 0H7.93359C7.93359 0.460195 8.09587 0.705656 8.22626 0.902883C8.33231 1.06324 8.40234 1.16918 8.40234 1.41797C8.40234 1.66676 8.33229 1.7727 8.22626 1.93305C8.09587 2.13028 7.93359 2.37574 7.93359 2.83594H8.63672C8.63672 2.58715 8.70675 2.48121 8.8128 2.32085C8.94319 2.12363 9.10547 1.87816 9.10547 1.41797C9.10547 0.957773 8.94319 0.712312 8.8128 0.515086Z" fill="white"/>
<path d="M7.07812 3.53906C6.56037 3.53906 6.14062 3.9588 6.14062 4.47656V11.0625C6.14062 11.5803 6.56037 12 7.07812 12C7.59588 12 8.01562 11.5803 8.01562 11.0625V4.47656C8.01562 3.9588 7.59588 3.53906 7.07812 3.53906Z" fill="white"/>
<path d="M1.75781 3.53906C1.24005 3.53906 0.820312 3.9588 0.820312 4.47656V4.82812H0V5.53125H0.820312V11.0625C0.820312 11.5803 1.24005 12 1.75781 12C2.27557 12 2.69531 11.5803 2.69531 11.0625V4.47656C2.69531 3.9588 2.27557 3.53906 1.75781 3.53906Z" fill="white"/>
<path d="M4.5 3.53906C3.98224 3.53906 3.5625 3.9588 3.5625 4.47656V11.0625C3.5625 11.5803 3.98224 12 4.5 12C5.01776 12 5.4375 11.5803 5.4375 11.0625V4.47656C5.4375 3.9588 5.01776 3.53906 4.5 3.53906Z" fill="white"/>
<path d="M11.2969 3.98438V4.82812H10.5938V4.47656C10.5938 3.9588 10.174 3.53906 9.65625 3.53906C9.13849 3.53906 8.71875 3.9588 8.71875 4.47656V11.0625C8.71875 11.5803 9.13849 12 9.65625 12C10.174 12 10.5938 11.5803 10.5938 11.0625V5.53125H12V3.98438H11.2969Z" fill="white"/>
</g>
<defs>
<clipPath id="clip0_218_987">
<rect width="12" height="12" fill="white"/>
</clipPath>
</defs>
</svg>
