<svg width="14" height="14" viewBox="0 0 14 14" fill="none" xmlns="http://www.w3.org/2000/svg">
<path d="M7 0C4.06001 0 1.66797 2.39204 1.66797 5.33203C1.66797 8.27202 4.06001 10.6641 7 10.6641C9.93999 10.6641 12.332 8.27202 12.332 5.33203C12.332 2.39204 9.93999 0 7 0ZM8.23047 9.02344H5.76953V8.20312H8.23047V9.02344ZM6.58984 5.74219V4.10156H7.41016V5.74219H6.58984ZM9.32037 8.23239L8.15997 7.07199L8.73996 6.492L9.29987 7.05191C9.58858 6.66718 9.77037 6.21846 9.8383 5.74219H9.05078V4.92188H9.82965C9.75948 4.43791 9.57213 3.99539 9.29143 3.62059L8.73996 4.17206L8.15997 3.59207L8.71144 3.0406C8.33664 2.7599 7.89412 2.57256 7.41016 2.50238V3.28125H6.58984V2.50238C6.10588 2.57256 5.66336 2.7599 5.28856 3.0406L5.84003 3.59207L5.26004 4.17206L4.70857 3.62059C4.42787 3.99539 4.24052 4.43791 4.17035 4.92188H4.94922V5.74219H4.1617C4.22963 6.21846 4.41132 6.66718 4.70003 7.05191L5.26004 6.492L5.84003 7.07199L4.67963 8.23239C4.56993 8.07912 3.30859 7.17838 3.30859 5.33203C3.30859 3.29652 4.96449 1.64062 7 1.64062C9.03551 1.64062 10.6914 3.29652 10.6914 5.33203C10.6914 7.18115 9.42622 8.08446 9.32037 8.23239Z" fill="white"/>
<path d="M7 11.4844C6.57874 11.4844 6.16719 11.4414 5.76953 11.3604V13.1797H4.12891V14H9.87109V13.1797H8.23047V11.3604C7.83281 11.4414 7.42126 11.4844 7 11.4844Z" fill="white"/>
</svg>
