<svg width="14" height="14" viewBox="0 0 14 14" fill="none" xmlns="http://www.w3.org/2000/svg">
<path d="M5.79845 10.7333C6.11952 10.7333 6.42145 10.6082 6.64872 10.3812C6.96979 10.0599 7.23625 9.49031 6.67415 8.58895L5.98885 7.62015C5.90135 7.49625 5.69532 7.49625 5.60782 7.62015L4.92392 8.58731C4.48012 9.20191 4.48992 9.92291 4.94819 10.3812C5.17545 10.6082 5.47739 10.7333 5.79845 10.7333Z" fill="white"/>
<path d="M4.83158 6.60175C4.74034 6.51052 4.59288 6.51052 4.50164 6.60175L4.03498 7.06842C3.94374 7.15965 3.94374 7.30712 4.03498 7.39835C4.08048 7.44385 4.14021 7.46672 4.19994 7.46672C4.25968 7.46672 4.31941 7.44385 4.36491 7.39835L4.83158 6.93168C4.92281 6.84045 4.92281 6.69298 4.83158 6.60175Z" fill="white"/>
<path d="M4.66667 6.06671C4.66667 5.93767 4.56237 5.83337 4.43333 5.83337H3.73333C3.6043 5.83337 3.5 5.93767 3.5 6.06671C3.5 6.19574 3.6043 6.30004 3.73333 6.30004H4.43333C4.56237 6.30004 4.66667 6.19574 4.66667 6.06671Z" fill="white"/>
<path d="M10.2666 2.56667C10.3956 2.56667 10.4999 2.46237 10.4999 2.33333V0.933333C10.4999 0.8043 10.3956 0.7 10.2666 0.7H9.7999V0H5.5999V0.7H5.13324C5.0042 0.7 4.8999 0.8043 4.8999 0.933333V2.33333C4.8999 2.46237 5.0042 2.56667 5.13324 2.56667H5.5999V5.83333H6.53324V5.13333C6.53324 5.0043 6.63754 4.9 6.76657 4.9H7.46657V4.2C7.46657 4.07097 7.57087 3.96667 7.6999 3.96667C7.82894 3.96667 7.93324 4.07097 7.93324 4.2V5.13333C7.93324 5.26237 7.82894 5.36667 7.6999 5.36667H6.9999V6.06667C6.9999 6.1957 6.8956 6.3 6.76657 6.3H5.5999V7.09147C5.6636 7.07303 5.72964 7.06067 5.79824 7.06067C6.02784 7.06067 6.24157 7.1694 6.3699 7.35117L7.0699 8.34213C7.8308 9.56223 7.33917 10.3502 6.97844 10.7112C6.66274 11.0266 6.24367 11.2 5.79824 11.2C5.73127 11.2 5.66547 11.1949 5.5999 11.1872V11.4333H5.13324C5.0042 11.4333 4.8999 11.5376 4.8999 11.6667V13.0667C4.8999 13.1957 5.0042 13.3 5.13324 13.3H5.5999V14H9.7999V13.3H10.2666C10.3956 13.3 10.4999 13.1957 10.4999 13.0667V11.6667C10.4999 11.5376 10.3956 11.4333 10.2666 11.4333H9.7999V2.56667H10.2666ZM10.0332 11.9V12.8333H9.7999H5.5999H5.36657V11.9H5.5999H9.7999H10.0332ZM5.36657 2.1V1.16667H5.5999H9.7999H10.0332V2.1H9.7999H5.5999H5.36657Z" fill="white"/>
<path d="M4.5018 5.53169C4.5473 5.57719 4.60703 5.60005 4.66677 5.60005C4.7265 5.60005 4.78623 5.57719 4.83173 5.53169C4.92297 5.44045 4.92297 5.29299 4.83173 5.20175L4.33683 4.70685C4.2456 4.61562 4.09813 4.61562 4.0069 4.70685C3.91567 4.79809 3.91567 4.94555 4.0069 5.03679L4.5018 5.53169Z" fill="white"/>
</svg>
