<svg width="14" height="14" viewBox="0 0 14 14" fill="none" xmlns="http://www.w3.org/2000/svg">
<path d="M0.466797 8.98087V12.3741C0.466797 12.4012 0.477552 12.4272 0.496696 12.4463C0.515841 12.4654 0.541806 12.4762 0.56888 12.4762H1.78571V8.87878H0.56888C0.541806 8.87878 0.515841 8.88954 0.496696 8.90868C0.477552 8.92783 0.466797 8.95379 0.466797 8.98087Z" fill="white"/>
<path d="M13.4313 8.87878H12.2124V12.4762H13.4313C13.4584 12.4762 13.4843 12.4654 13.5035 12.4463C13.5226 12.4272 13.5334 12.4012 13.5334 12.3741V8.98087C13.5334 8.95379 13.5226 8.92783 13.5035 8.90868C13.4843 8.88954 13.4584 8.87878 13.4313 8.87878Z" fill="white"/>
<path d="M11.6246 8.39246H10.9896C10.8879 8.39213 10.7902 8.43212 10.7179 8.50367C10.6455 8.57523 10.6045 8.67252 10.6038 8.77425V12.5758C10.6035 12.6264 10.6133 12.6765 10.6326 12.7232C10.6519 12.77 10.6804 12.8124 10.7164 12.8479C10.7523 12.8835 10.795 12.9115 10.8419 12.9304C10.8889 12.9492 10.9391 12.9585 10.9896 12.9576H11.6246C11.7261 12.9578 11.8236 12.9178 11.8955 12.8462C11.9675 12.7746 12.0081 12.6773 12.0084 12.5758V8.77425C12.0081 8.67274 11.9675 8.57551 11.8955 8.50392C11.8236 8.43233 11.7261 8.39224 11.6246 8.39246Z" fill="white"/>
<path d="M3.00878 8.39247H2.37791C2.27587 8.39176 2.17772 8.43156 2.10499 8.50314C2.03227 8.57471 1.99091 8.67222 1.98999 8.77426V12.5758C1.99091 12.6779 2.03227 12.7754 2.10499 12.847C2.17772 12.9185 2.27587 12.9583 2.37791 12.9576H3.00878C3.05934 12.9585 3.10957 12.9492 3.1565 12.9304C3.20343 12.9115 3.24612 12.8835 3.28207 12.8479C3.31801 12.8124 3.34649 12.77 3.36583 12.7233C3.38516 12.6765 3.39496 12.6264 3.39466 12.5758V8.77426C3.3939 8.67252 3.35287 8.57524 3.28056 8.50368C3.20824 8.43213 3.11052 8.39214 3.00878 8.39247Z" fill="white"/>
<path d="M7.82285 7.86133H5.5076C5.48053 7.86133 5.45456 7.87208 5.43542 7.89123C5.41627 7.91037 5.40552 7.93634 5.40552 7.96341V8.98016C5.40549 8.99955 5.41106 9.01854 5.42156 9.03484C5.43207 9.05113 5.44706 9.06405 5.46473 9.07204C5.96107 9.31951 6.50675 9.4521 7.06131 9.45995C7.5908 9.45754 8.11138 9.32353 8.57623 9.06999C8.59272 9.06145 8.60657 9.04857 8.61628 9.03274C8.62599 9.01691 8.6312 8.99873 8.63135 8.98016V7.96341C8.63135 7.93634 8.6206 7.91037 8.60145 7.89123C8.58231 7.87208 8.55634 7.86133 8.52927 7.86133H7.82285Z" fill="white"/>
<path d="M7.00014 1.04248C6.28086 1.04159 5.58494 1.29777 5.03792 1.76482C4.4909 2.23187 4.12879 2.87903 4.01693 3.58956C3.90507 4.30009 4.05081 5.0272 4.42786 5.63973C4.80492 6.25227 5.38846 6.70988 6.07322 6.93004V7.65748H7.92501V6.93004C8.6096 6.70994 9.19303 6.25249 9.5701 5.64017C9.94716 5.02785 10.093 4.30096 9.98145 3.59057C9.86986 2.88018 9.50812 2.23303 8.96148 1.76582C8.41483 1.29861 7.71924 1.04208 7.00014 1.04248ZM7.67797 6.36715C7.45804 6.4328 7.22966 6.46582 7.00014 6.46515C6.77076 6.46578 6.54249 6.43346 6.3223 6.36919C5.76584 6.20695 5.28653 5.84952 4.97228 5.36247C4.65803 4.87542 4.52992 4.2914 4.61143 3.71753C4.69294 3.14366 4.97862 2.61841 5.41607 2.23813C5.85351 1.85786 6.4134 1.64804 6.99303 1.64716C7.57266 1.64629 8.13317 1.85442 8.57176 2.23338C9.01035 2.61234 9.29761 3.13672 9.38085 3.71034C9.46409 4.28397 9.33773 4.86837 9.02495 5.35637C8.71217 5.84436 8.23394 6.20323 7.67797 6.36715Z" fill="white"/>
<path d="M7.0188 2.28849C7.06212 2.28849 7.10367 2.27129 7.1343 2.24065C7.16493 2.21002 7.18214 2.16848 7.18214 2.12516V1.98755C7.18214 1.94423 7.16493 1.90269 7.1343 1.87206C7.10367 1.84143 7.06212 1.82422 7.0188 1.82422C6.97548 1.82422 6.93394 1.84143 6.90331 1.87206C6.87268 1.90269 6.85547 1.94423 6.85547 1.98755V2.12516C6.85547 2.16848 6.87268 2.21002 6.90331 2.24065C6.93394 2.27129 6.97548 2.28849 7.0188 2.28849Z" fill="white"/>
<path d="M7.0188 5.8324C6.97548 5.8324 6.93394 5.84961 6.90331 5.88024C6.87268 5.91087 6.85547 5.95241 6.85547 5.99573V6.13334C6.85547 6.17666 6.87268 6.2182 6.90331 6.24883C6.93394 6.27946 6.97548 6.29667 7.0188 6.29667C7.06212 6.29667 7.10367 6.27946 7.1343 6.24883C7.16493 6.2182 7.18214 6.17666 7.18214 6.13334V5.99573C7.18214 5.95241 7.16493 5.91087 7.1343 5.88024C7.10367 5.84961 7.06212 5.8324 7.0188 5.8324Z" fill="white"/>
<path d="M8.48471 2.4314C8.46328 2.43133 8.44205 2.43552 8.42224 2.44372C8.40244 2.45192 8.38447 2.46397 8.36936 2.47917L8.27197 2.57656C8.24263 2.60744 8.22652 2.64856 8.22706 2.69115C8.22761 2.73374 8.24477 2.77443 8.27489 2.80455C8.30501 2.83467 8.3457 2.85183 8.38829 2.85238C8.43088 2.85292 8.472 2.83681 8.50288 2.80747L8.60027 2.71009C8.62307 2.68723 8.63858 2.65813 8.64486 2.62647C8.65113 2.5948 8.64788 2.56199 8.63551 2.53217C8.62315 2.50235 8.60223 2.47686 8.57539 2.45893C8.54855 2.44099 8.51699 2.43141 8.48471 2.4314Z" fill="white"/>
<path d="M5.65029 5.26563C5.60705 5.26559 5.56557 5.2827 5.53493 5.3132L5.43754 5.41058C5.4069 5.4412 5.38967 5.48275 5.38965 5.52607C5.38963 5.56939 5.40682 5.61095 5.43744 5.6416C5.46806 5.67225 5.50961 5.68948 5.55293 5.68949C5.59625 5.68951 5.63781 5.67232 5.66846 5.6417L5.76584 5.54431C5.78864 5.52146 5.80416 5.49236 5.81043 5.4607C5.8167 5.42903 5.81345 5.39622 5.80109 5.3664C5.78872 5.33658 5.7678 5.31109 5.74096 5.29316C5.71412 5.27522 5.68257 5.26564 5.65029 5.26563Z" fill="white"/>
<path d="M9.09171 3.89673H8.9541C8.91079 3.89673 8.86924 3.91394 8.83861 3.94457C8.80798 3.9752 8.79077 4.01674 8.79077 4.06006C8.79077 4.10338 8.80798 4.14493 8.83861 4.17556C8.86924 4.20619 8.91079 4.2234 8.9541 4.2234H9.09171C9.13503 4.2234 9.17658 4.20619 9.20721 4.17556C9.23784 4.14493 9.25505 4.10338 9.25505 4.06006C9.25505 4.01674 9.23784 3.9752 9.20721 3.94457C9.17658 3.91394 9.13503 3.89673 9.09171 3.89673Z" fill="white"/>
<path d="M5.08366 3.89673H4.94605C4.90273 3.89673 4.86118 3.91394 4.83055 3.94457C4.79992 3.9752 4.78271 4.01674 4.78271 4.06006C4.78271 4.10338 4.79992 4.14493 4.83055 4.17556C4.86118 4.20619 4.90273 4.2234 4.94605 4.2234H5.08366C5.12698 4.2234 5.16852 4.20619 5.19915 4.17556C5.22978 4.14493 5.24699 4.10338 5.24699 4.06006C5.24699 4.01674 5.22978 3.9752 5.19915 3.94457C5.16852 3.91394 5.12698 3.89673 5.08366 3.89673Z" fill="white"/>
<path d="M8.50269 5.31341C8.48768 5.2976 8.46965 5.28496 8.44967 5.27623C8.42969 5.26751 8.40817 5.26287 8.38637 5.26259C8.36457 5.26231 8.34294 5.2664 8.32274 5.27461C8.30255 5.28282 8.2842 5.295 8.26879 5.31041C8.25337 5.32583 8.2412 5.34417 8.23298 5.36437C8.22477 5.38456 8.22068 5.4062 8.22096 5.428C8.22124 5.4498 8.22588 5.47132 8.23461 5.4913C8.24334 5.51128 8.25598 5.5293 8.27178 5.54432L8.36917 5.6415C8.3998 5.67211 8.44132 5.6893 8.48462 5.6893C8.52792 5.6893 8.56945 5.67211 8.60008 5.6415C8.63063 5.61088 8.64778 5.5694 8.64778 5.52615C8.64778 5.4829 8.63063 5.44141 8.60008 5.41079L8.50269 5.31341Z" fill="white"/>
<path d="M5.66847 2.47869C5.65345 2.46288 5.63542 2.45025 5.61544 2.44152C5.59547 2.43279 5.57394 2.42815 5.55214 2.42787C5.53034 2.42759 5.50871 2.43168 5.48851 2.43989C5.46832 2.44811 5.44997 2.46028 5.43456 2.4757C5.41914 2.49111 5.40697 2.50946 5.39875 2.52965C5.39054 2.54985 5.38645 2.57148 5.38673 2.59328C5.38701 2.61508 5.39165 2.6366 5.40038 2.65658C5.40911 2.67656 5.42175 2.69459 5.43755 2.7096L5.53494 2.80699C5.56559 2.83761 5.60715 2.8548 5.65047 2.85478C5.69379 2.85476 5.73533 2.83754 5.76595 2.80689C5.79658 2.77624 5.81377 2.73468 5.81375 2.69136C5.81373 2.64804 5.7965 2.60649 5.76585 2.57587L5.66847 2.47869Z" fill="white"/>
<path d="M7.59221 2.96207C7.56848 2.94884 7.54179 2.94181 7.51463 2.94165C7.48528 2.94182 7.45652 2.94989 7.43137 2.96501C7.40622 2.98014 7.38561 3.00176 7.37171 3.0276L6.85721 3.98229C6.83668 4.02036 6.8321 4.06503 6.84446 4.10648C6.85682 4.14793 6.88513 4.18279 6.92316 4.2034C6.94203 4.21363 6.96273 4.22004 6.98408 4.22226C7.00543 4.22448 7.02701 4.22247 7.04759 4.21635C7.06816 4.21022 7.08732 4.2001 7.10398 4.18656C7.12064 4.17303 7.13447 4.15634 7.14468 4.13745L7.65918 3.18257C7.67969 3.14447 7.68424 3.09978 7.67184 3.05833C7.65944 3.01687 7.63109 2.98203 7.59303 2.96145L7.59221 2.96207Z" fill="white"/>
<path d="M8.83551 8.98087C8.83526 9.03637 8.81993 9.09077 8.79117 9.13824C8.7624 9.18571 8.72127 9.22446 8.67217 9.25037C8.17785 9.51986 7.62431 9.66229 7.0613 9.66483C6.47627 9.65719 5.90051 9.51761 5.37692 9.25649C5.32423 9.23232 5.27964 9.19346 5.24849 9.14457C5.21735 9.09568 5.20098 9.03884 5.20134 8.98087V8.87878H3.59863V12.4762H10.3994V8.87878H8.83551V8.98087Z" fill="white"/>
</svg>
