<svg width="12" height="13" viewBox="0 0 12 13" fill="none" xmlns="http://www.w3.org/2000/svg">
<g clip-path="url(#clip0_218_959)">
<path d="M11.9103 1.99947C11.8667 1.85507 11.6847 1.80965 11.5784 1.91587L10.8849 2.60943H9.89063V1.61517L10.5843 0.921277C10.6909 0.814496 10.6446 0.633066 10.5014 0.589496C10.305 0.529848 10.1013 0.504395 9.89267 0.504395C9.32721 0.504395 8.79713 0.719082 8.39921 1.11804C7.91168 1.60521 7.69334 2.30182 7.81418 2.98193L7.84646 3.16216L2.66208 8.34651C2.45267 8.30908 2.32655 8.28161 2.11207 8.28161C1.5552 8.28161 1.01035 8.50682 0.617581 8.89926C0.063284 9.45393 -0.132068 10.2661 0.0893231 11.0006C0.132964 11.1453 0.314698 11.1907 0.421151 11.0842L1.11476 10.3907H2.11407V11.3853L1.41563 12.079C1.30896 12.1856 1.35497 12.3673 1.49867 12.4109C1.69453 12.4702 1.89795 12.5001 2.10626 12.5001C3.41928 12.5001 4.41628 11.3155 4.18578 10.0182L4.1535 9.83793L9.33753 4.65358C9.54345 4.69038 9.67491 4.71872 9.88753 4.71813C10.4454 4.71813 10.9899 4.49325 11.382 4.10083C11.9367 3.54644 12.1318 2.7345 11.9103 1.99947Z" fill="white"/>
<path d="M11.4861 9.49914L9.02045 7.05784C8.85597 6.89364 8.65147 6.76509 8.42748 6.67542L6.1521 8.9508C6.24175 9.17486 6.37042 9.37952 6.53479 9.54419L9.00011 11.9852C9.68537 12.6704 10.7977 12.6729 11.4861 11.9852C12.1714 11.2995 12.1714 10.1844 11.4861 9.49914ZM10.484 10.983C10.3466 11.1203 10.1242 11.1203 9.98683 10.983L8.25932 9.27984C8.122 9.14252 8.122 8.92002 8.25932 8.7827C8.39664 8.64538 8.61913 8.64538 8.75645 8.7827L10.484 10.4859C10.6213 10.6232 10.6213 10.8456 10.484 10.983Z" fill="white"/>
<path d="M3.00655 2.51229L3.00603 2.51245L3.3231 2.19539C3.415 2.1034 3.39568 1.95 3.28464 1.88339L1.13837 0.550103C1.00007 0.467111 0.822996 0.488908 0.708972 0.602978L0.102972 1.20898C-0.011145 1.3231 -0.032895 1.50024 0.0501909 1.63856L1.38439 3.7838C1.45124 3.89499 1.60503 3.91352 1.69635 3.82212L2.01212 3.50639L4.26003 5.75431L5.2543 4.76004L3.00655 2.51229Z" fill="white"/>
</g>
<defs>
<clipPath id="clip0_218_959">
<rect width="12" height="12" fill="white" transform="translate(0 0.5)"/>
</clipPath>
</defs>
</svg>
