<svg width="14" height="14" viewBox="0 0 14 14" fill="none" xmlns="http://www.w3.org/2000/svg">
<g clip-path="url(#clip0_218_949)">
<path d="M13.0662 3.24889L11.1308 1.31336C10.5967 0.778675 9.73028 0.778046 9.19557 1.31336C7.92665 2.5823 8.20017 2.30876 6.9374 3.57152L6.61469 3.24884C6.43652 3.07066 6.14779 3.07066 5.96962 3.24884L4.67948 4.53898C4.50131 4.71715 4.50131 5.00587 4.67948 5.18404L5.00203 5.50659C3.85854 6.65025 1.68287 8.826 0.535 9.97398C-0.178128 10.6865 -0.178538 11.8413 0.535 12.5543C1.24651 13.2658 2.40387 13.266 3.11558 12.5543L7.58261 8.08717C7.99069 8.49525 7.78227 8.28681 8.5502 9.05506C9.44035 9.94464 10.8866 9.94428 11.7758 9.05506C11.954 8.87689 11.954 8.58816 11.7758 8.40999C11.2733 7.90738 10.0164 6.65028 9.51789 6.15183L10.163 5.50667L12.4211 7.76465C12.5994 7.94288 12.888 7.94288 13.0662 7.76465C14.3112 6.51965 14.3112 4.49388 13.0662 3.24889ZM2.47048 11.9092C2.11438 12.2653 1.53557 12.2647 1.18004 11.9092C0.823286 11.5524 0.823532 10.9756 1.18004 10.619L1.5027 10.2963L2.793 11.5866L2.47048 11.9092ZM8.22767 7.4421L5.6471 4.86152L6.29217 4.21645L8.54968 6.47372C8.5499 6.47394 8.54998 6.47426 8.5502 6.47448C8.55041 6.4747 8.55074 6.47478 8.55074 6.47478L8.87299 6.797C8.4773 7.19261 8.62372 7.04627 8.22767 7.4421Z" fill="white"/>
</g>
<defs>
<clipPath id="clip0_218_949">
<rect width="14" height="14" fill="white"/>
</clipPath>
</defs>
</svg>
